<?xml version="1.0" standalone="no"?>
<!DOCTYPE svg PUBLIC "-//W3C//DTD SVG 20010904//EN"
 "http://www.w3.org/TR/2001/REC-SVG-20010904/DTD/svg10.dtd">
<svg version="1.0" xmlns="http://www.w3.org/2000/svg"
 width="1600.000000pt" height="1067.000000pt" viewBox="0 0 1600.000000 1067.000000"
 preserveAspectRatio="xMidYMid meet">
<metadata>
Created by potrace 1.16, written by Peter Selinger 2001-2019
</metadata>
<g transform="translate(0.000000,1067.000000) scale(0.100000,-0.100000)"
fill="#000000" stroke="none">
<path d="M11987 8740 c-21 -38 -45 -93 -54 -122 l-15 -53 -22 44 c-11 24 -30
50 -41 57 -53 34 -125 -61 -166 -219 -26 -102 -23 -106 10 -10 50 142 95 213
137 213 17 0 54 -48 54 -71 0 -9 5 -19 11 -21 21 -7 -18 -118 -71 -202 -45
-70 -140 -186 -154 -186 -2 0 -35 17 -73 39 -300 169 -384 211 -403 201 -20
-11 -27 -30 -11 -30 5 0 41 -39 81 -87 47 -56 62 -79 43 -65 -33 23 -89 83
-114 121 -12 19 -21 23 -42 17 -36 -9 -35 -32 7 -103 48 -81 104 -131 301
-263 93 -62 164 -115 157 -118 -19 -6 -16 -196 3 -212 13 -11 15 -8 15 16 0
16 -4 45 -10 64 l-9 35 19 -24 c11 -13 20 -30 20 -38 0 -8 5 -11 10 -8 6 3 7
17 4 31 -5 19 -3 23 10 18 8 -3 18 -14 21 -24 9 -27 9 -86 0 -99 -5 -9 0 -12
16 -11 55 5 78 0 73 -14 -3 -8 -15 -16 -26 -19 -35 -10 -9 -27 41 -27 26 0 61
-5 78 -10 19 -7 38 -7 54 -1 17 7 19 10 7 10 -10 1 -18 8 -18 16 0 8 -5 15
-11 15 -6 0 -9 6 -6 14 3 8 -5 24 -18 36 -20 19 -30 21 -82 15 -59 -7 -63 1
-10 23 18 8 27 8 27 1 0 -6 5 -7 12 -3 7 5 -14 21 -57 42 l-70 33 55 -5 c30
-3 85 -6 123 -6 l67 0 0 -38 c0 -45 11 -61 66 -95 33 -20 319 -221 333 -233 2
-2 -30 -54 -71 -116 -104 -156 -128 -196 -128 -210 0 -26 110 -98 150 -98 11
0 34 10 51 22 l29 22 21 -21 22 -21 -31 -16 c-46 -23 -85 -20 -153 15 -41 20
-64 27 -72 20 -8 -6 -19 -5 -31 5 -11 8 -28 14 -38 14 -27 0 -40 36 -33 90 7
54 -7 92 -33 89 -32 -3 -44 1 -40 13 3 7 15 15 27 18 23 5 26 26 4 24 -7 -1
-13 2 -13 7 0 5 -11 15 -25 21 -14 6 -34 26 -45 45 -10 18 -26 33 -35 33 -20
0 -19 23 5 70 34 67 20 116 -32 108 -28 -4 -50 -54 -29 -67 27 -17 2 -26 -56
-21 l-58 5 -1 49 c-1 36 -5 51 -19 59 -15 8 -22 6 -34 -13 -9 -12 -26 -32 -39
-45 -13 -14 -20 -29 -16 -39 3 -9 1 -16 -5 -16 -6 0 -11 -8 -11 -17 0 -14 -2
-15 -12 -4 -10 11 -10 14 0 18 22 8 13 25 -11 19 -30 -7 -71 32 -61 58 3 9 1
23 -5 30 -9 11 -9 15 0 18 8 3 8 19 -1 63 -16 78 -29 101 -113 210 -72 93
-137 212 -137 252 0 13 -4 23 -9 23 -12 0 -46 -52 -43 -66 1 -7 -8 -14 -20
-18 -18 -5 -20 -8 -9 -15 19 -12 -3 -51 -30 -51 -11 0 -18 -4 -15 -9 4 -5 0
-12 -6 -14 -10 -4 -9 -8 2 -16 20 -15 4 -14 -23 1 -33 18 -60 17 -78 -1 -27
-29 -28 -60 -3 -138 13 -42 24 -88 24 -102 1 -28 23 -65 33 -54 4 3 7 1 7 -5
0 -6 -12 -12 -27 -14 -18 -2 -29 -10 -31 -22 -7 -34 13 -39 59 -15 24 12 85
39 134 60 91 38 112 59 77 78 -15 8 -23 7 -32 -4 -16 -20 -41 -20 -34 0 4 8
-2 27 -11 41 -23 35 -37 84 -24 84 12 0 129 -121 129 -132 0 -5 12 -13 27 -19
l27 -10 -43 -25 c-24 -13 -47 -24 -52 -24 -5 0 -37 -14 -72 -31 -34 -18 -79
-37 -101 -43 -42 -12 -51 -23 -37 -45 8 -12 21 -10 78 16 37 16 110 47 161 68
50 21 92 43 92 50 0 21 -60 97 -137 173 l-74 73 7 47 c3 26 11 53 16 59 6 7 8
20 4 28 -3 8 -2 15 2 15 4 0 15 -21 24 -47 10 -27 36 -70 58 -98 87 -109 117
-152 138 -198 l22 -47 -56 -25 c-49 -22 -54 -26 -45 -44 16 -30 13 -48 -9 -54
-16 -4 -24 2 -33 23 l-12 29 -75 -35 c-41 -20 -100 -44 -130 -55 -30 -10 -67
-28 -82 -39 -24 -17 -33 -18 -79 -10 -29 6 -55 12 -57 15 -9 9 -61 -36 -83
-71 -22 -36 -22 -36 -38 -16 -9 11 -29 22 -45 24 -25 3 -32 10 -46 54 -22 63
-78 149 -108 165 -18 10 -36 10 -94 -4 l-71 -17 -71 43 c-160 99 -266 146
-422 186 -45 12 -113 32 -152 46 -38 13 -91 29 -117 35 -28 6 -64 24 -87 44
-22 19 -54 37 -71 40 -34 6 -189 20 -417 36 -341 24 -332 24 -401 1 -35 -11
-147 -39 -249 -62 -229 -50 -286 -67 -475 -136 -204 -75 -376 -160 -455 -226
-185 -153 -428 -550 -431 -706 -1 -73 -8 -75 -74 -29 l-60 41 39 -41 c34 -36
36 -41 18 -39 -12 1 -22 6 -22 12 0 17 -40 47 -55 41 -8 -3 -15 0 -18 7 -6 18
-225 17 -236 -2 -7 -10 -10 -10 -13 -1 -3 10 -12 10 -38 3 -19 -5 -95 -10
-167 -9 -73 1 -133 -1 -133 -4 0 -3 -35 -6 -77 -7 -113 -1 -115 -2 -108 -15 4
-7 -1 -4 -9 6 -9 11 -16 16 -16 10 0 -5 -19 -8 -42 -6 -109 8 -138 8 -129 3 6
-4 -4 -13 -21 -20 -22 -10 -27 -16 -17 -20 11 -5 10 -10 -7 -26 -12 -11 -25
-21 -30 -22 -5 -1 -13 -2 -19 -3 -20 -4 -36 0 -31 8 3 5 -19 15 -49 22 -30 7
-55 17 -55 22 0 16 -27 37 -36 28 -5 -5 -17 -2 -28 6 -11 8 -14 14 -8 14 7 0
12 7 12 15 0 13 4 14 22 4 13 -7 34 -13 48 -15 14 -1 36 -6 50 -12 14 -5 29
-10 34 -10 5 0 13 -6 17 -14 7 -10 9 -10 9 2 -1 31 -27 51 -65 48 -22 -1 -40
3 -44 11 -7 11 -10 11 -14 0 -4 -11 -6 -10 -6 2 -1 11 -13 16 -43 18 -77 4
-86 6 -82 12 2 4 -12 10 -31 13 -19 4 -35 11 -35 16 0 6 -7 10 -15 10 -11 0
-14 -7 -9 -25 5 -20 2 -25 -12 -25 -11 0 -28 7 -38 15 -17 13 -18 17 -6 28 10
10 11 9 5 -2 -5 -9 -3 -12 5 -9 8 2 15 9 17 15 3 9 -9 15 -45 23 -4 1 -11 8
-15 16 -4 8 -21 14 -37 14 -34 0 -84 44 -76 67 3 8 1 11 -5 8 -5 -4 -7 -15 -4
-25 5 -14 2 -17 -14 -13 -10 3 -28 13 -38 23 -11 10 -39 30 -64 45 -24 16 -50
34 -57 42 -8 8 -23 11 -38 7 -18 -5 -24 -2 -24 9 0 9 -10 27 -22 41 -37 40
-48 54 -115 153 -35 52 -68 105 -73 119 -9 22 -7 24 23 24 34 0 57 -12 121
-67 80 -67 80 -22 0 75 -35 44 -44 62 -44 93 0 69 -29 236 -51 291 -24 62 -86
179 -102 193 -6 6 -3 -3 7 -19 10 -15 16 -36 13 -46 -3 -12 2 -20 12 -23 12
-3 17 -13 15 -35 -1 -22 3 -32 17 -35 15 -4 19 -14 18 -54 0 -41 -2 -45 -12
-29 -7 10 -27 32 -45 49 -18 17 -31 35 -29 41 5 14 -18 36 -37 36 -9 0 -16 7
-16 15 0 8 -3 14 -7 14 -5 -1 -11 0 -15 1 -5 1 -14 3 -20 4 -7 1 -12 12 -10
25 2 24 -27 61 -48 61 -5 0 -10 5 -10 11 0 5 -4 8 -9 4 -5 -3 -12 -1 -16 5 -3
5 -15 10 -26 10 -21 0 -26 15 -6 24 6 3 3 4 -8 3 -12 -1 -19 3 -17 11 1 6 -2
12 -8 12 -5 0 -10 10 -11 23 0 12 -3 16 -6 10 -2 -7 -9 -13 -14 -13 -6 0 -7 6
-3 13 5 8 2 8 -9 -2 -9 -7 -17 -9 -17 -3 0 15 -41 22 -46 7 -5 -13 -44 -9 -44
5 0 4 -11 7 -25 6 -14 0 -25 -4 -25 -8 0 -5 -5 -8 -11 -8 -5 0 -7 6 -3 13 4 6
-1 4 -12 -5 -16 -14 -23 -15 -33 -5 -11 9 -14 9 -18 -1 -3 -8 -11 -5 -24 10
-10 13 -18 20 -19 16 0 -4 -13 -3 -29 2 -16 4 -32 5 -36 2 -9 -10 -36 -11 -30
-1 4 5 -7 6 -23 3 -17 -4 -32 -1 -36 5 -4 6 0 11 8 11 9 0 16 5 16 10 0 6 -11
8 -25 4 -15 -4 -25 -2 -25 5 0 6 5 11 12 11 6 0 9 2 6 5 -10 10 -39 -8 -34
-20 8 -22 -35 -25 -89 -6 -28 10 -64 16 -81 14 -16 -3 -60 3 -97 11 -38 9 -79
16 -93 16 -13 0 -24 5 -24 10 0 6 -11 8 -27 4 -22 -6 -25 -4 -20 10 4 10 1 16
-8 16 -8 0 -15 -5 -15 -11 0 -7 -10 -9 -27 -5 -16 4 -46 8 -68 10 -22 1 -51 9
-65 16 -14 8 -50 15 -82 17 -31 2 -116 23 -192 48 -75 25 -141 45 -146 45 -25
0 -5 -23 47 -52 41 -23 52 -33 39 -38 -14 -5 -11 -10 16 -37 18 -17 47 -38 64
-47 18 -8 40 -30 51 -49 24 -40 41 -54 213 -166 141 -93 192 -139 325 -301 44
-52 101 -117 127 -145 26 -27 48 -54 48 -59 0 -5 -10 4 -21 18 -12 15 -25 23
-28 18 -3 -6 -64 -26 -136 -45 -71 -20 -202 -58 -290 -85 -88 -28 -259 -80
-380 -116 -121 -37 -242 -73 -270 -81 -139 -42 -343 -95 -368 -95 -16 0 -38 5
-50 12 -12 7 -28 13 -36 14 -8 2 -17 8 -21 15 -5 6 -13 8 -20 4 -9 -6 -11 -4
-5 5 6 10 4 12 -8 7 -9 -3 -19 -2 -22 3 -3 6 -15 15 -27 21 -14 8 -18 8 -14 0
5 -7 1 -9 -8 -5 -9 3 -16 10 -16 16 0 5 -8 7 -17 4 -10 -3 -25 -1 -33 5 -12 8
-9 9 9 4 16 -5 21 -4 17 4 -17 27 -175 40 -403 33 l-53 -2 0 -40 0 -40 54 0
55 0 4 43 4 42 1 -42 c2 -40 3 -42 40 -48 60 -10 99 -25 113 -41 11 -14 35
-15 174 -9 169 8 210 1 257 -42 30 -27 20 -36 -13 -12 -64 45 -166 61 -224 34
-28 -13 -26 -13 55 -15 l85 -2 -48 -22 c-26 -12 -44 -25 -40 -30 4 -5 -12 5
-36 23 -24 17 -53 31 -65 31 -18 0 -19 2 -6 11 11 7 -2 9 -45 4 -139 -13 -154
-16 -149 -30 3 -8 15 -16 27 -18 13 -3 11 -4 -5 -2 -17 1 -28 -4 -28 -11 0 -7
-3 -21 -6 -31 -4 -13 -3 -14 4 -5 5 8 13 14 18 14 26 2 63 21 58 30 -5 7 3 9
22 4 16 -4 43 -9 59 -11 53 -7 69 -12 73 -23 2 -7 -6 -9 -22 -6 -22 4 -24 1
-22 -23 5 -39 5 -40 17 -23 9 13 10 13 6 0 -2 -8 -10 -14 -16 -12 -6 1 -11 -2
-11 -8 0 -5 -4 -10 -10 -10 -5 0 -7 7 -4 15 8 19 -10 20 -28 2 -30 -31 -80
-48 -76 -26 2 6 -10 16 -27 22 -16 5 -34 15 -38 21 -6 7 -7 4 -3 -7 3 -10 6
-23 6 -28 0 -6 9 -7 21 -4 14 5 19 3 15 -3 -3 -6 7 -13 24 -17 36 -8 37 -15 8
-66 -20 -37 -24 -39 -57 -33 -20 3 -44 8 -53 11 -13 3 -16 0 -12 -11 4 -11 0
-13 -15 -9 -14 4 -23 0 -27 -13 -4 -11 -29 -68 -57 -129 -27 -60 -60 -136 -72
-167 -23 -56 -160 -271 -304 -477 -61 -87 -70 -105 -59 -118 11 -14 10 -15 -9
-9 -19 6 -25 1 -43 -35 -18 -34 -19 -43 -8 -50 7 -5 16 -9 19 -9 3 0 36 38 73
85 37 47 71 85 76 85 5 0 30 32 55 71 26 38 49 69 51 67 2 -2 -24 -57 -56
-123 -63 -126 -69 -145 -46 -145 20 0 41 32 130 200 43 80 100 183 128 230
l50 85 61 15 c52 13 63 20 80 50 10 19 60 79 111 135 50 55 117 130 149 166
31 36 72 74 92 85 19 10 35 22 35 26 0 5 8 8 18 8 9 0 53 21 97 46 44 25 96
48 115 50 19 2 145 15 280 29 135 13 355 36 490 49 135 14 372 37 527 52 l281
27 103 -38 c56 -21 109 -47 118 -57 8 -10 21 -18 28 -18 8 0 18 -12 23 -26 16
-42 99 -131 190 -204 47 -38 121 -105 165 -149 71 -72 84 -81 116 -81 31 0 38
-4 49 -30 13 -31 105 -95 369 -254 l144 -87 28 33 c15 18 28 42 29 53 0 19 1
19 15 -2 8 -12 32 -32 52 -44 21 -12 40 -24 42 -25 2 -2 -1 -10 -8 -18 -6 -8
-10 -20 -9 -27 2 -8 -2 -13 -8 -12 -7 1 -10 -6 -7 -18 4 -14 9 -17 16 -10 6 6
20 11 30 11 13 0 17 5 13 15 -3 8 -9 23 -13 32 -5 13 -3 15 11 10 27 -11 305
-178 311 -187 3 -5 1 -20 -5 -35 -11 -30 -43 -45 -157 -76 -43 -12 -81 -26
-84 -31 -3 -5 -48 -22 -100 -37 -159 -46 -161 -48 -344 -216 -162 -149 -275
-245 -289 -245 -8 0 -19 7 -26 15 -7 8 -16 13 -20 10 -9 -6 -35 23 -27 31 2 3
-6 16 -20 30 -15 15 -22 31 -19 42 7 22 -21 79 -67 135 -27 33 -41 43 -64 42
-15 -1 -39 3 -53 8 -14 5 -36 10 -50 13 -14 2 -45 9 -70 15 -25 5 -53 11 -62
12 -9 1 -14 6 -11 11 4 5 -1 7 -10 3 -9 -3 -18 0 -21 9 -3 9 -10 13 -15 10 -5
-3 -74 30 -153 75 -168 95 -468 253 -468 246 0 -2 53 -35 118 -72 64 -37 144
-87 177 -110 33 -23 98 -68 145 -100 47 -32 135 -96 195 -143 107 -83 241
-161 317 -184 43 -13 139 -102 273 -253 125 -141 177 -223 183 -285 2 -28 1
-50 -4 -49 -5 0 -34 34 -64 76 -227 312 -576 587 -917 722 -234 93 -446 131
-743 134 -185 2 -228 -4 -374 -49 -11 -4 -16 -2 -12 4 11 18 -8 21 -53 11 -67
-15 -101 -17 -101 -7 0 5 -5 6 -10 3 -6 -3 -10 -1 -10 5 0 6 6 10 13 9 6 -1
23 3 37 9 36 16 6 15 -91 -4 -169 -31 -307 -79 -480 -164 -382 -191 -656 -427
-878 -761 -254 -380 -372 -774 -371 -1234 0 -398 67 -692 231 -1015 182 -360
434 -635 812 -889 42 -28 77 -53 77 -54 0 -2 -16 -1 -35 1 -80 9 -548 -90
-586 -124 -10 -9 -19 -21 -19 -25 0 -26 269 -105 525 -153 134 -25 410 -68
460 -71 17 -1 57 -7 90 -13 33 -6 128 -16 210 -22 83 -6 206 -15 275 -20 150
-12 608 -14 1160 -5 223 3 731 8 1130 10 399 2 867 8 1040 14 425 13 927 22
1635 27 325 2 617 6 650 8 91 7 433 8 537 2 51 -4 152 -8 223 -11 72 -3 173
-8 225 -11 52 -2 136 -6 185 -9 50 -2 227 -14 395 -26 168 -12 346 -23 396
-25 118 -3 356 -13 509 -21 66 -3 163 -7 215 -8 52 -1 163 -7 245 -14 83 -6
254 -13 380 -16 127 -2 331 -7 455 -10 504 -12 1154 -14 1310 -5 91 6 210 13
265 15 306 16 414 33 497 76 31 16 31 15 19 37 -14 26 -116 65 -211 82 -41 7
-135 28 -207 46 -73 19 -154 34 -180 34 l-48 0 55 32 c196 111 314 201 465
353 184 185 297 339 391 532 243 499 277 1012 102 1538 -69 206 -216 472 -349
630 -85 101 -257 263 -367 345 -109 83 -111 85 -80 88 18 1 66 -4 106 -11 39
-8 72 -10 72 -5 0 14 -195 136 -310 194 -295 148 -573 222 -900 240 l-125 7
45 19 c25 11 115 40 200 64 85 25 160 47 165 49 11 5 -44 -3 -84 -12 -15 -4
-22 -2 -18 4 4 6 -3 14 -16 17 l-22 6 25 20 c27 21 114 28 125 10 3 -5 16 -10
28 -10 22 -1 22 -1 3 -15 -27 -20 -17 -19 38 4 41 18 331 195 415 254 33 23
35 27 32 75 -2 44 0 51 13 46 24 -9 21 38 -10 142 -66 231 -177 477 -327 729
-81 135 -86 141 -153 183 -70 43 -148 127 -139 149 2 7 0 12 -4 10 -5 -1 -29
16 -53 39 -23 23 -59 49 -78 59 -19 10 -69 47 -110 82 -104 89 -125 98 -57 23
31 -35 55 -66 52 -68 -3 -3 -37 26 -77 65 -114 109 -165 153 -283 243 -60 46
-113 88 -116 93 -4 5 -12 44 -19 86 -11 69 -23 120 -50 206 -5 17 -12 45 -15
64 -3 19 -8 38 -11 43 -3 5 -1 14 4 21 20 26 30 73 19 93 -6 10 -14 41 -18 68
-24 147 -194 396 -336 490 -32 21 -142 66 -162 66 -3 0 -23 -32 -44 -70z m182
-87 c29 -21 63 -43 74 -50 19 -11 18 -12 -18 -27 -21 -9 -36 -18 -34 -21 10
-9 59 -13 64 -4 8 12 45 12 45 -1 0 -5 -7 -10 -15 -10 -8 0 -15 -4 -15 -10 0
-13 13 -13 28 2 9 9 18 8 39 -2 16 -8 33 -16 38 -19 6 -2 1 5 -9 17 -11 12
-14 22 -9 22 17 0 100 -129 127 -195 40 -100 40 -105 15 -100 -29 6 -36 14
-20 24 10 6 4 15 -22 35 -23 18 -33 33 -30 45 4 15 0 17 -27 13 l-32 -4 37
-30 c27 -23 34 -35 30 -52 -6 -21 -6 -21 9 -2 15 19 16 19 16 -10 0 -16 4 -35
9 -43 12 -19 3 -41 -14 -35 -8 3 -11 13 -8 21 5 12 3 14 -8 7 -8 -5 -23 -9
-34 -9 -11 0 -20 -7 -20 -15 -1 -8 -7 -13 -15 -11 -8 2 -32 6 -52 9 -24 2 -38
9 -38 18 0 8 -2 14 -4 14 -2 0 -13 3 -23 6 -15 5 -15 4 -3 -5 24 -17 -6 -14
-46 5 -19 9 -31 21 -27 27 4 6 0 8 -8 5 -11 -4 -16 2 -17 24 -2 18 2 27 8 23
6 -3 8 -10 5 -15 -3 -4 3 -10 13 -13 9 -3 48 -17 87 -31 40 -15 71 -22 73 -16
2 5 10 10 18 10 8 0 11 6 8 15 -6 14 -8 13 -19 -2 -13 -17 -15 -17 -52 4 -30
17 -37 27 -35 47 2 13 -2 27 -7 31 -7 4 -11 -4 -11 -21 0 -23 -2 -25 -15 -14
-9 7 -14 18 -12 24 3 6 0 20 -6 31 -10 19 -10 19 -17 0 -4 -11 -2 -26 4 -34 9
-12 8 -12 -11 -3 -12 7 -25 17 -28 23 -10 15 4 61 15 54 6 -3 10 -2 10 4 0 5
-6 11 -12 13 -9 3 -8 11 5 31 15 24 14 57 -2 57 -4 0 -14 -22 -21 -50 -12 -46
-15 -49 -30 -35 -14 13 -26 14 -62 6 -25 -6 -53 -13 -63 -17 -16 -7 -17 -3
-11 32 18 102 65 224 90 234 33 14 38 12 95 -27z m-8754 -515 c5 4 5 1 1 -5
-10 -18 30 -34 284 -107 124 -36 319 -95 434 -131 116 -36 221 -65 235 -64 26
1 26 1 -4 14 -16 8 -89 33 -162 56 -73 24 -131 45 -129 47 5 4 181 -47 314
-92 57 -19 108 -33 115 -30 14 5 41 -33 28 -40 -5 -3 -25 1 -45 9 -19 8 -46
15 -58 15 -15 0 4 -15 56 -43 73 -39 83 -48 134 -125 30 -45 53 -85 50 -88
-11 -10 -144 64 -219 121 -142 108 -384 210 -821 345 -150 46 -248 94 -248
122 0 7 4 7 13 -1 8 -6 18 -7 22 -3z m8926 -47 c4 -3 12 -41 18 -83 14 -89 7
-110 -40 -127 -41 -14 -39 -15 -39 12 0 12 -16 66 -34 120 l-35 98 62 -7 c34
-3 65 -9 68 -13z m-3283 -297 c6 -11 11 -13 16 -5 8 12 56 16 56 4 0 -3 -8
-16 -17 -27 -12 -14 -8 -12 12 5 17 14 38 24 49 21 16 -3 14 -8 -15 -38 -36
-38 -79 -45 -115 -20 -15 11 -30 12 -57 6 -35 -8 -77 -4 -77 7 0 3 15 18 33
34 37 33 100 40 115 13z m-433 -48 c83 -14 188 -26 235 -26 l85 -1 -39 -21
c-35 -18 -50 -20 -125 -14 -47 4 -133 16 -191 26 -58 11 -139 22 -181 26 -70
6 -80 4 -145 -24 -39 -17 -122 -45 -185 -62 -172 -47 -406 -127 -471 -162 -31
-17 -75 -46 -98 -65 -43 -37 -49 -34 -53 22 -2 25 7 36 60 76 46 35 105 64
240 116 98 39 221 82 273 96 52 15 111 31 130 37 60 16 302 4 465 -24z m661
20 c18 -14 18 -15 0 -22 -10 -4 -27 -2 -36 4 -14 9 -22 7 -36 -9 -18 -20 -18
-20 8 -14 15 4 29 2 33 -5 5 -7 20 -3 49 14 28 16 50 22 69 19 32 -6 31 -2 11
-53 -17 -42 -33 -49 -57 -25 -10 10 -25 13 -45 9 -17 -4 -32 -1 -36 5 -4 6
-22 11 -40 11 -19 0 -40 7 -47 16 -12 14 -9 20 16 40 34 27 81 31 111 10z
m3422 -270 c117 -82 245 -197 234 -208 -12 -12 -55 8 -47 22 3 5 0 12 -6 16
-8 4 -9 3 -5 -4 15 -24 -8 -9 -131 84 -69 53 -132 98 -140 101 -24 9 -14 35
15 42 2 1 38 -23 80 -53z m-982 -203 c27 -15 50 -30 52 -34 2 -5 9 -6 17 -3 7
3 16 1 20 -5 3 -6 14 -11 23 -11 13 0 12 5 -8 24 -17 16 -28 20 -33 12 -6 -7
-7 -6 -4 4 2 8 11 13 18 11 8 -2 22 -3 32 -3 15 1 22 -9 15 -23 -2 -2 6 -11
17 -19 11 -8 16 -18 12 -22 -4 -5 -12 -2 -17 6 -7 10 -10 11 -10 3 0 -7 -6
-13 -14 -13 -8 0 -29 -15 -47 -32 -18 -18 -30 -26 -27 -18 6 20 -87 100 -116
100 -22 0 -36 16 -36 41 0 18 59 8 106 -18z m-496 -34 c-3 -3 2 -14 10 -24 8
-11 10 -16 3 -12 -13 8 -89 -28 -96 -46 -3 -7 -22 -21 -43 -32 -22 -11 -49
-29 -61 -41 -27 -25 -86 -44 -139 -44 -22 0 -51 -7 -64 -16 l-25 -16 24 21
c13 12 31 21 41 21 9 0 34 11 54 25 20 14 39 25 41 25 12 0 152 106 169 127
14 19 26 23 55 21 20 -2 34 -6 31 -9z m-306 -234 c20 -15 12 -20 -23 -16 -7 2
-10 -2 -7 -7 3 -5 -10 -13 -30 -17 l-36 -6 27 -29 c48 -50 32 -120 -27 -120
-41 0 -78 40 -78 84 0 51 9 66 58 97 50 32 87 36 116 14z m1741 -22 c19 -21
35 -41 35 -44 0 -3 -10 -11 -22 -17 -13 -7 -41 -23 -63 -37 -22 -14 -49 -29
-60 -34 -11 -5 -45 -20 -76 -34 l-55 -24 -60 28 c-58 27 -70 38 -20 19 20 -7
37 -5 72 10 53 23 163 105 171 129 8 22 24 41 34 41 5 0 24 -17 44 -37z
m-5400 -409 c67 -36 86 -76 43 -88 -13 -4 -97 -11 -188 -16 -91 -6 -182 -12
-202 -16 -21 -3 -38 -3 -38 1 0 9 91 47 187 79 63 21 88 35 104 57 20 28 22
29 43 15 11 -9 35 -23 51 -32z m-2205 21 c44 -9 281 -88 276 -92 -2 -2 -46 7
-97 21 -170 45 -213 56 -224 56 -23 0 50 -38 103 -54 55 -16 555 -150 617
-166 118 -29 371 -105 376 -112 3 -5 13 -6 22 -3 12 5 14 2 11 -12 -3 -11 6
-45 20 -77 14 -32 23 -63 19 -69 -3 -5 -2 -7 4 -4 5 3 17 -11 27 -31 10 -23
11 -31 3 -20 -8 10 -18 14 -22 10 -5 -4 -5 1 -2 11 4 11 1 17 -9 17 -8 0 -12
-4 -9 -10 3 -5 2 -10 -3 -10 -16 0 -22 13 -12 25 10 12 -17 15 -118 15 -31 0
-41 3 -36 12 5 8 2 9 -9 5 -11 -4 -17 -1 -17 8 0 7 -11 27 -26 44 l-25 30 -29
-26 c-26 -23 -75 -53 -87 -53 -2 0 -1 15 2 33 5 31 4 33 -63 65 -38 17 -74 32
-80 32 -7 0 -12 4 -12 9 0 5 -9 13 -20 16 -11 3 -20 13 -20 21 0 8 -4 14 -9
14 -5 0 -11 14 -15 30 -7 36 -30 48 -54 28 -29 -25 -90 -57 -96 -51 -3 4 -6
16 -6 27 0 17 -13 26 -62 45 -85 33 -348 168 -374 192 -11 10 -27 19 -35 20
-8 0 -6 4 6 9 11 5 27 7 35 5 8 -2 31 -7 50 -10z m5111 -203 c98 -63 184 -112
198 -112 24 0 278 -176 269 -186 -3 -2 -29 0 -59 6 -35 7 -64 20 -84 39 -38
35 -196 152 -321 237 -110 74 -112 87 -3 16z m3275 13 c30 -20 53 -39 50 -44
-3 -5 2 -8 11 -7 10 0 18 -4 18 -11 0 -6 4 -15 9 -20 5 -5 6 -3 2 5 -12 20 4
14 55 -24 53 -39 65 -55 22 -28 -22 14 -21 11 7 -14 38 -34 61 -42 39 -14 -13
15 -12 16 3 3 10 -7 16 -17 13 -21 -3 -5 6 -17 20 -28 14 -11 25 -22 25 -25 0
-3 -21 -13 -47 -23 -63 -23 -78 -34 -61 -45 17 -12 0 -11 -40 1 -29 8 -32 7
-21 -6 23 -27 -22 -3 -133 73 -59 40 -119 80 -135 88 -15 8 -22 15 -14 15 7 0
30 -9 50 -21 l36 -21 -25 21 c-14 12 -37 24 -52 27 -15 4 -37 17 -50 31 -15
16 -17 22 -6 18 12 -5 18 1 23 24 5 24 15 33 53 46 26 10 56 21 67 25 11 5 21
9 23 9 2 1 28 -15 58 -34z m-5502 -84 c37 -19 69 -39 72 -43 4 -5 -26 7 -65
28 -68 36 -76 37 -164 37 -54 -1 -150 -12 -232 -28 -224 -42 -582 -114 -678
-136 l-88 -21 40 -28 c76 -55 68 -59 -59 -30 -47 11 -111 20 -144 20 -52 0
-222 38 -213 47 3 2 42 -5 89 -16 93 -22 62 -25 328 33 117 25 720 146 820
164 30 6 94 10 141 9 75 -2 93 -6 153 -36z m4400 -173 c90 -55 139 -80 131
-67 -6 9 -3 10 11 4 75 -32 309 -107 404 -130 101 -25 138 -41 125 -53 -2 -2
-43 4 -92 13 -106 21 -281 78 -342 111 -24 13 -46 22 -49 20 -5 -6 125 -71
258 -129 91 -40 221 -86 350 -124 75 -23 -12 -12 -141 17 -185 42 -304 82
-448 151 -68 32 -129 59 -136 59 -7 0 -21 -30 -32 -67 l-20 -68 -16 35 c-13
28 -52 142 -84 243 -8 27 23 21 81 -15z m-4178 -254 c44 -15 81 -28 83 -30 2
-2 -13 -22 -33 -46 -20 -23 -36 -49 -34 -58 1 -8 -1 -27 -5 -43 -8 -29 18 -92
47 -116 10 -9 12 -16 5 -24 -13 -16 -147 -263 -164 -304 -13 -31 -17 -33 -64
-33 -28 0 -51 3 -51 8 0 20 140 277 151 277 7 0 14 7 16 15 4 13 3 13 -7 0 -9
-13 -11 -12 -8 5 2 11 10 20 17 20 8 0 16 7 18 15 4 12 3 13 -5 1 -7 -9 -9 4
-8 42 1 40 -4 60 -16 74 -10 11 -18 23 -18 28 0 4 8 2 18 -5 9 -7 -10 13 -42
43 -33 31 -64 55 -70 54 -6 -1 -12 9 -13 23 -2 22 -2 23 6 5 9 -18 10 -17 10
8 1 35 19 35 23 0 4 -38 49 -54 78 -28 26 24 25 49 -2 75 -28 25 -26 25 68 -6z
m-2187 -58 c58 -35 125 -74 148 -86 24 -13 41 -26 38 -28 -2 -2 -20 6 -40 18
-22 13 -46 20 -60 17 -17 -3 -25 0 -25 9 0 9 -11 14 -28 14 -16 0 -53 13 -83
29 -41 23 -73 31 -137 37 -45 3 -85 10 -88 15 -4 7 53 27 121 42 29 7 37 3
154 -67z m6706 -95 c176 -94 408 -176 525 -184 30 -3 54 -7 53 -11 -2 -3 -3
-11 -3 -17 0 -5 -21 -20 -47 -31 -43 -19 -68 -21 -233 -22 -338 -2 -527 30
-477 80 4 4 7 -1 7 -11 0 -13 3 -15 13 -6 8 6 17 8 20 4 4 -3 7 -2 7 4 0 5 11
23 25 39 14 16 25 23 25 17 0 -7 7 -13 15 -13 8 0 14 3 13 8 0 4 2 15 6 25 10
20 46 23 46 3 0 -18 27 -29 34 -13 2 7 5 4 5 -5 1 -10 12 -20 26 -24 14 -3 25
-10 25 -15 0 -11 27 -12 33 -1 2 4 3 2 1 -4 -2 -11 83 -31 92 -21 7 7 -37 57
-51 57 -7 0 -15 3 -17 8 -1 4 -23 17 -48 30 -52 26 -63 33 -142 85 -32 21 -58
44 -58 52 0 8 3 15 7 15 3 0 47 -22 98 -49z m-9531 -6 c-5 -11 -2 -13 11 -9
17 7 112 -10 150 -27 11 -4 31 -10 45 -12 24 -4 24 -4 -2 -6 -16 0 -28 -7 -28
-13 0 -9 -4 -8 -10 2 -8 13 -10 12 -10 -2 0 -10 0 -21 0 -25 -1 -5 14 -11 32
-14 l33 -6 -30 -3 c-30 -2 -30 -2 -5 -10 25 -8 25 -8 -5 -10 -30 -2 -30 -2 -5
-10 22 -7 21 -8 -13 -9 -21 -1 -36 -5 -33 -10 3 -4 -17 -11 -45 -14 -28 -4
-56 -11 -63 -16 -7 -6 -21 -10 -31 -10 -11 0 -44 -5 -74 -10 -30 -6 -90 -10
-135 -10 -91 0 -161 -5 -197 -15 l-24 -7 23 17 c32 24 28 29 -24 28 l-46 -1
23 18 c68 52 335 167 423 183 16 3 31 8 34 11 9 9 12 5 6 -10z m-179 -10 c-16
-8 -73 -34 -125 -59 -52 -24 -120 -58 -150 -76 -30 -17 -44 -23 -31 -12 l24
19 -26 18 c-40 26 -34 48 16 63 58 17 165 35 207 34 25 -1 31 2 20 9 -11 7 -7
8 12 3 15 -3 35 -1 45 5 10 6 23 10 28 10 6 0 -3 -7 -20 -14z m6885 1 c0 -2
-28 -13 -62 -26 -75 -27 -259 -107 -459 -201 l-146 -68 -139 14 c-76 7 -206
16 -289 20 -240 12 -240 28 0 40 66 3 183 11 261 16 106 9 159 8 211 -1 l70
-11 169 72 c164 70 361 148 377 149 4 0 7 -2 7 -4z m-3988 -174 c189 -98 328
-216 276 -235 -19 -6 -175 75 -243 127 -33 26 -76 59 -96 74 -20 15 -44 37
-53 50 -17 22 -16 22 13 22 16 0 63 -17 103 -38z m7248 -106 c0 -2 -37 -17
-82 -34 -100 -38 -424 -161 -455 -173 -14 -5 -23 -5 -23 1 0 6 24 21 53 34 28
13 106 49 172 81 146 71 214 94 283 94 28 1 52 -1 52 -3z m-10830 -182 c0 -20
4 -25 18 -22 24 7 49 -20 27 -28 -9 -4 -14 -13 -10 -21 4 -11 1 -13 -11 -9
-11 4 -32 -4 -56 -20 -29 -20 -38 -33 -38 -55 0 -35 10 -36 63 -5 44 26 213
103 187 86 -8 -6 -52 -32 -98 -58 -314 -179 -557 -434 -717 -752 -124 -247
-184 -493 -185 -762 0 -70 -4 -129 -9 -132 -5 -3 -25 10 -45 29 -21 19 -42 35
-47 35 -5 0 -9 12 -10 28 l-1 27 -8 -25 c-7 -21 -8 -19 -9 18 -1 23 -5 42 -9
42 -19 0 -35 80 -28 142 3 35 8 101 10 148 2 47 9 99 16 117 8 23 9 37 0 52
-6 12 -7 21 -1 21 5 0 8 23 7 50 -2 28 0 50 4 50 9 0 32 53 29 66 -5 20 13 81
31 104 l20 25 0 -22 c0 -13 -4 -23 -10 -23 -5 0 -10 -5 -10 -11 0 -5 4 -8 8
-5 5 3 6 -8 4 -25 -3 -17 0 -29 7 -29 6 0 11 2 11 5 0 24 33 212 45 258 8 32
15 61 15 65 0 4 5 0 11 -8 9 -12 10 -12 5 3 -9 27 4 67 19 61 7 -3 16 4 20 15
3 12 11 21 17 21 6 0 9 3 5 6 -3 4 16 39 42 78 42 61 67 88 149 156 6 6 12 7
12 3 0 -4 4 -3 8 3 11 16 144 120 177 138 17 9 55 34 85 56 30 21 89 56 130
76 41 20 82 40 90 45 25 13 30 10 30 -17z m3030 4 c11 -12 20 -29 20 -37 0 -9
9 -29 20 -46 11 -16 20 -38 20 -47 0 -10 5 -18 12 -18 6 0 8 -3 5 -7 -4 -3 -2
-12 4 -20 24 -28 -26 2 -93 56 -64 51 -77 67 -84 101 -8 42 61 55 96 18z
m2699 -64 c2 -2 -10 -4 -27 -4 -28 0 -32 -3 -32 -28 0 -16 3 -32 7 -36 4 -4 6
-40 4 -81 -2 -62 0 -75 16 -85 14 -9 8 -10 -32 -5 -27 4 -58 14 -67 22 -10 9
-18 11 -18 5 0 -6 5 -14 10 -17 6 -3 10 -11 10 -16 0 -6 -5 -7 -12 -3 -7 4 -8
3 -4 -5 4 -6 12 -9 17 -6 14 9 11 -11 -4 -23 -10 -8 -24 4 -62 51 -27 34 -55
68 -64 75 -13 10 -11 12 10 12 18 0 29 -8 37 -25 12 -26 13 -27 62 -29 22 -1
30 4 35 22 3 12 1 31 -5 42 -14 25 -23 26 -15 1 3 -11 1 -22 -5 -26 -9 -6 -14
7 -11 28 0 4 -3 7 -9 7 -9 0 -15 -30 -11 -53 1 -5 -4 -7 -11 -5 -8 3 -13 21
-13 44 l0 39 41 -3 c24 -2 45 1 49 8 11 17 -3 24 -20 10 -10 -8 -15 -9 -15 -1
0 6 9 16 20 23 12 8 20 24 20 40 0 17 6 28 18 31 17 4 73 -2 81 -9z m-1721
-61 c34 -37 68 -118 82 -194 11 -62 7 -129 -9 -129 -5 0 -30 57 -55 128 -26
70 -51 136 -56 148 -8 20 -3 74 8 74 2 0 16 -12 30 -27z m1045 -9 c-40 -19
-96 -57 -125 -85 -29 -28 -47 -48 -40 -44 26 13 10 -19 -35 -72 -40 -46 -50
-53 -72 -48 -19 4 -22 3 -11 -4 12 -8 12 -13 2 -23 -6 -6 -12 -25 -12 -40 0
-21 5 -28 20 -28 12 0 20 -7 20 -16 0 -9 -9 -18 -20 -21 -22 -6 -22 -8 -11
-38 11 -28 -51 -94 -72 -77 -7 7 -16 9 -20 6 -3 -3 -3 3 0 15 3 12 1 21 -6 21
-6 0 -11 -7 -11 -15 0 -8 -5 -15 -11 -15 -6 0 -47 -24 -92 -52 -44 -29 -89
-53 -99 -53 -11 0 -27 13 -36 30 -9 16 -23 36 -31 44 -11 12 -10 17 5 28 26
19 32 17 49 -17 9 -16 20 -30 25 -30 6 0 52 29 103 64 81 56 134 84 146 77 10
-7 18 25 10 40 -15 28 -11 55 16 106 25 47 111 143 128 143 5 0 29 18 55 39
50 42 157 101 182 100 8 0 -17 -16 -57 -35z m5116 -75 c7 -22 34 -73 60 -114
27 -40 65 -114 85 -164 43 -108 69 -158 90 -174 8 -7 36 -59 61 -116 l46 -104
-21 -22 c-23 -25 -80 -32 -80 -10 0 8 -18 56 -40 106 -22 51 -38 100 -35 109
3 9 -3 28 -13 41 -11 13 -39 60 -62 104 -47 87 -109 192 -166 280 l-36 57 23
16 c20 15 50 28 70 31 3 1 11 -17 18 -40z m1467 -70 c-138 -18 -181 -66 -210
-234 -8 -49 -24 -138 -36 -197 -24 -130 -25 -138 -2 -138 39 0 220 -122 325
-219 63 -59 65 -92 5 -148 -24 -21 -53 -45 -65 -54 -25 -17 -25 -39 1 -68 10
-11 15 -25 10 -32 -4 -7 -3 -10 4 -5 6 3 25 -14 43 -39 18 -25 34 -45 36 -45
7 0 -16 34 -55 85 l-39 50 64 52 c101 83 130 73 214 -68 58 -98 129 -259 129
-295 0 -19 -9 -39 -24 -53 -21 -20 -32 -22 -99 -19 -69 3 -74 2 -61 -13 10
-11 40 -19 87 -24 115 -11 133 -29 147 -156 19 -166 -20 -411 -96 -611 -51
-135 -107 -229 -223 -373 -82 -103 -143 -154 -184 -155 -39 0 -92 27 -112 56
-13 21 -19 23 -37 13 -20 -11 -19 -13 26 -51 81 -70 61 -104 -110 -188 -118
-57 -239 -100 -282 -100 -43 0 -63 29 -69 99 -5 57 -7 61 -27 55 -12 -4 -22
-7 -22 -8 -1 0 3 -25 9 -53 13 -63 2 -102 -33 -120 -51 -26 -393 -12 -450 19
-38 20 -39 68 -1 127 37 56 37 57 11 71 -17 9 -24 2 -59 -58 -62 -107 -104
-116 -233 -49 -153 79 -374 230 -362 248 2 4 -1 11 -7 15 -8 5 -10 2 -5 -7 4
-8 -4 0 -18 16 -25 29 -35 52 -18 41 5 -3 18 5 30 18 11 13 28 29 39 34 14 9
16 14 7 29 -14 21 -74 21 -113 1 -22 -12 -26 -9 -62 30 -80 91 -209 410 -209
518 0 46 23 74 82 98 31 13 42 14 74 3 33 -12 37 -17 41 -53 5 -57 40 -158 85
-248 43 -87 101 -180 117 -190 6 -4 -10 26 -34 65 -54 88 -100 205 -125 319
-15 64 -16 86 -7 92 8 5 14 -4 18 -30 10 -55 27 -102 28 -77 1 11 10 28 21 38
21 18 27 37 11 37 -5 0 -14 14 -20 30 -7 21 -17 30 -33 30 -13 1 -36 7 -53 15
-33 16 -19 14 73 -11 35 -9 62 -22 62 -29 0 -8 12 -23 28 -34 l27 -22 -35 3
c-33 3 -35 1 -35 -27 0 -24 5 -31 23 -33 17 -3 25 2 29 17 7 28 17 26 33 -4 7
-14 24 -32 37 -40 21 -14 33 -38 16 -33 -5 2 -9 -1 -10 -7 -2 -5 3 -10 10 -10
6 0 17 -9 24 -20 17 -28 16 -16 -5 46 -25 72 -34 119 -22 119 5 0 21 -5 36
-10 29 -12 97 -3 88 11 -3 5 -1 9 5 9 18 0 39 -29 46 -62 4 -18 13 -52 21 -76
18 -54 18 -62 -1 -62 -8 0 -35 -14 -60 -32 -43 -31 -56 -48 -35 -48 6 0 10 -7
10 -15 0 -13 4 -14 20 -5 16 9 22 8 26 -5 6 -13 11 -12 38 8 54 41 56 41 50 5
l-5 -33 21 28 c25 31 55 35 83 9 19 -17 20 -16 7 8 -12 23 -12 24 3 11 23 -18
21 -60 -3 -86 -16 -18 -18 -24 -8 -32 7 -6 103 -36 213 -68 110 -31 201 -58
202 -59 3 -3 -68 -118 -83 -133 -8 -8 -23 -9 -55 -2 -63 14 -142 42 -157 56
-7 7 -23 13 -34 13 -11 0 -32 8 -46 19 -15 10 -38 24 -52 30 -60 28 48 -51
120 -88 118 -62 221 -92 286 -85 30 4 54 11 54 15 0 13 38 11 45 -1 4 -6 25
-9 47 -6 34 4 39 2 34 -12 -5 -13 -2 -12 9 3 11 14 13 32 9 70 l-7 50 25 -22
c13 -13 35 -23 49 -22 22 1 22 1 -6 11 -62 22 -71 46 -30 84 16 15 20 24 12
27 -7 3 4 6 23 6 41 1 60 -13 60 -46 0 -29 13 -29 49 -2 19 14 36 19 50 14 33
-10 25 -31 -20 -45 -33 -11 -39 -17 -35 -34 3 -12 6 -26 6 -33 0 -18 34 -33
60 -26 l24 6 -22 8 c-23 9 -30 43 -12 54 6 3 20 3 31 0 16 -5 20 -13 16 -31
-5 -27 -3 -28 24 -14 10 6 19 18 19 26 0 11 6 13 20 9 14 -5 38 4 73 26 78 49
95 66 90 93 -3 15 1 25 12 30 28 10 38 -4 18 -27 -14 -17 -11 -16 11 3 50 44
137 154 126 160 -13 8 -2 40 12 40 6 0 7 -8 4 -17 -4 -11 2 -8 14 7 24 29 34
64 26 85 -3 8 -22 23 -43 32 -58 27 -113 72 -113 94 0 11 4 18 9 15 8 -6 23
18 25 39 1 15 42 18 65 6 14 -8 22 -8 27 0 3 6 19 9 34 7 22 -3 30 0 34 15 4
15 10 18 29 13 24 -6 25 -3 37 60 6 37 9 91 6 120 -4 30 -8 78 -12 108 -5 50
-7 53 -30 48 -19 -3 -24 0 -24 16 0 26 19 39 31 21 15 -25 10 6 -15 77 -35
100 -35 102 -58 107 -15 4 -18 11 -13 27 11 36 -53 89 -77 64 -3 -3 3 -23 13
-44 26 -54 25 -60 -18 -53 -49 8 -75 21 -67 35 5 8 1 9 -10 5 -45 -18 -63 -17
-86 1 -22 18 -22 21 -9 50 8 18 20 32 28 32 11 0 11 -3 2 -14 -14 -17 1 -56
22 -56 37 0 49 51 17 73 -11 8 -17 17 -13 20 3 4 -1 7 -10 7 -22 0 -22 28 1
54 16 20 16 20 -1 7 -26 -20 -41 -1 -21 27 8 12 22 22 30 22 34 0 4 37 -74 92
-35 24 -43 35 -38 52 3 11 9 46 12 76 3 30 10 65 16 77 7 15 7 31 0 53 -7 18
-7 28 -2 25 6 -4 10 8 11 27 2 115 84 612 106 650 27 46 63 68 118 74 27 2 51
7 54 9 2 3 25 4 50 4 41 -1 38 -3 -23 -10z m-453 -66 c3 -15 5 -83 6 -152 1
-135 33 -342 57 -366 11 -11 -2 -19 -73 -50 -48 -20 -97 -38 -110 -40 -28 -3
-52 -22 -63 -50 -5 -13 0 -58 15 -121 12 -54 30 -142 40 -194 10 -52 21 -102
26 -111 4 -8 10 -33 12 -55 3 -21 12 -84 21 -139 9 -55 18 -110 20 -123 3 -18
-6 -31 -37 -53 -22 -16 -44 -26 -48 -22 -4 5 -19 37 -32 73 -81 211 -138 337
-162 358 -14 12 -22 22 -17 22 18 0 60 -58 82 -113 12 -32 23 -56 24 -55 1 2
8 11 15 21 12 15 12 17 -3 11 -12 -5 -16 0 -16 18 0 13 -4 28 -9 33 -6 6 -11
33 -13 62 -2 28 -5 49 -7 47 -7 -6 -31 69 -25 78 3 4 1 8 -4 8 -10 0 -29 144
-25 188 1 12 -2 22 -6 22 -5 0 -11 17 -14 38 -9 51 -22 107 -42 172 -9 30 -19
68 -22 84 -4 20 -8 24 -14 15 -6 -10 -9 -6 -9 14 0 15 -5 27 -10 27 -6 0 -15
11 -21 24 -7 14 -23 26 -40 30 -17 3 -29 12 -29 21 0 10 -5 13 -12 9 -9 -5 -9
-2 1 9 16 20 36 23 25 5 -4 -7 2 -5 13 5 11 9 24 17 29 17 5 0 28 17 51 38 23
20 72 49 110 64 37 15 93 48 123 73 70 59 117 84 156 85 27 0 33 -4 37 -27z
m-9947 -62 c115 -25 196 -52 308 -104 106 -49 107 -48 -109 -67 -77 -6 -196
-18 -265 -26 -69 -8 -176 -17 -239 -21 l-114 -6 7 63 c10 82 31 134 70 166 30
26 32 27 141 20 60 -3 151 -15 201 -25z m-517 -26 c16 -8 31 -22 35 -30 10
-26 6 -103 -8 -184 -7 -40 -11 -85 -9 -100 4 -21 2 -23 -7 -11 -9 12 -10 7 -5
-23 5 -29 3 -37 -6 -31 -9 5 -11 -3 -6 -32 5 -29 4 -35 -4 -24 -8 11 -9 6 -5
-20 2 -19 0 -44 -5 -55 -8 -17 -8 -16 -4 7 l5 27 -61 -35 c-33 -18 -65 -34
-70 -34 -11 0 -163 230 -203 307 -30 57 -29 82 8 121 29 32 78 56 199 97 119
40 110 39 146 20z m2571 -70 c208 -87 193 -84 185 -43 -3 18 -9 42 -12 53 -3
11 -2 17 2 13 4 -3 12 -30 18 -59 l12 -52 155 -69 c85 -38 236 -103 335 -144
167 -70 212 -95 200 -115 -3 -4 -1 -10 5 -14 15 -9 12 -28 -3 -22 -18 7 -44
-90 -29 -105 8 -8 66 9 199 58 153 56 194 75 220 103 l32 34 73 -7 c40 -4 104
-9 141 -11 64 -4 72 -8 116 -47 26 -24 49 -47 50 -53 2 -5 8 -16 14 -23 8 -11
5 -11 -17 -1 -16 8 -22 15 -15 19 7 5 0 15 -18 27 -28 20 -43 21 -135 7 -25
-4 -38 -2 -38 5 0 6 -4 11 -10 11 -5 0 -10 -9 -10 -20 0 -23 0 -23 -34 -10
-18 6 -35 6 -53 -1 -16 -6 -93 -33 -173 -61 -239 -82 -323 -118 -354 -148 -35
-34 -29 -49 11 -31 l28 13 -28 -30 -28 -30 83 -45 c46 -24 99 -49 118 -55 30
-10 211 -32 257 -32 8 0 12 -4 9 -9 -4 -5 -1 -11 5 -13 6 -2 -15 -28 -47 -57
l-58 -53 -65 7 c-106 11 -189 35 -188 55 0 3 -6 22 -12 43 -12 34 -21 42 -80
69 -59 26 -189 64 -196 56 -2 -2 7 -33 18 -70 20 -64 24 -69 62 -81 l40 -14
-64 -7 c-35 -4 -66 -5 -69 -2 -3 3 2 6 11 6 23 0 21 17 -5 48 l-22 27 -23 -22
c-27 -28 -43 -29 -43 -3 0 12 -10 25 -24 31 -25 12 -29 10 -78 -35 -17 -15
-22 -16 -29 -5 -5 8 -9 17 -9 22 0 4 -6 7 -14 7 -24 0 -28 43 -6 61 40 34 264
162 321 184 32 13 66 31 75 39 16 17 49 22 40 7 -4 -5 3 -7 15 -4 16 4 17 8 7
14 -7 5 -23 9 -35 9 -16 0 -23 6 -23 20 0 11 -5 20 -11 20 -6 0 -9 -9 -6 -20
3 -13 0 -20 -9 -20 -8 0 -14 2 -14 4 0 2 -3 11 -6 20 -4 11 4 17 30 22 43 8
48 24 7 24 -31 0 -66 -34 -54 -52 3 -6 -9 -3 -25 6 -33 17 -87 22 -78 7 3 -5
-2 -8 -12 -7 -9 0 -16 -5 -14 -12 1 -8 -2 -11 -9 -6 -13 8 -50 -32 -161 -173
-60 -75 -78 -91 -98 -90 -22 2 -26 -3 -30 -34 l-5 -36 -32 14 c-18 7 -33 18
-33 24 0 5 10 59 21 119 12 60 19 115 16 122 -2 8 -45 31 -93 53 -49 21 -97
45 -107 54 -36 30 -337 454 -337 474 1 24 60 107 78 107 9 0 87 -29 172 -65z
m1963 -61 c42 -22 44 -24 27 -34 -8 -5 -42 -7 -75 -5 -33 3 -54 3 -47 -1 6 -3
12 -14 12 -25 0 -23 8 -24 31 -3 9 8 19 12 21 7 2 -4 -17 -28 -44 -52 -47 -43
-48 -43 -48 -18 0 20 -6 28 -27 33 -14 4 -34 2 -44 -5 -23 -14 -46 -14 -54 -1
-7 11 78 67 150 98 61 26 58 26 98 6z m234 -70 c30 -4 40 -10 36 -20 -3 -8 1
-14 10 -14 9 0 25 -14 37 -30 19 -26 24 -29 38 -18 14 10 15 10 5 -2 -22 -24
-14 -28 25 -14 44 16 112 18 112 4 0 -5 25 -10 56 -10 62 0 141 -19 124 -30
-7 -4 -1 -14 16 -25 22 -14 31 -15 46 -6 21 13 58 -1 58 -22 0 -7 19 -24 43
-39 51 -32 122 -99 162 -151 25 -34 27 -41 16 -59 -7 -11 -9 -18 -4 -15 5 3
18 -13 30 -36 70 -135 71 -312 3 -447 -21 -43 -96 -130 -112 -130 -4 0 13 32
38 71 l46 71 -18 33 c-16 30 -17 41 -5 115 13 86 9 143 -16 226 -13 45 -13 54
1 88 14 35 14 38 -4 56 -11 11 -17 20 -14 20 4 0 1 7 -6 15 -7 8 -17 12 -23 8
-6 -4 -7 -1 -3 6 10 15 -12 40 -89 100 -60 48 -61 48 -93 32 -28 -13 -39 -13
-80 -2 -87 25 -145 30 -230 19 -71 -10 -88 -9 -116 5 -31 15 -35 14 -76 -9
-23 -13 -63 -42 -89 -63 -49 -42 -119 -131 -102 -131 23 0 22 -51 -4 -131 -22
-71 -26 -99 -24 -179 3 -79 0 -100 -16 -127 -19 -32 -19 -33 2 -82 17 -40 18
-48 6 -44 -22 9 -60 101 -74 178 -10 62 -8 139 7 227 5 31 3 37 -14 40 -18 3
-18 6 9 72 15 38 33 74 40 80 6 6 4 -4 -6 -23 -22 -44 -48 -118 -37 -106 5 6
16 29 25 53 10 23 28 60 42 82 30 48 32 64 4 30 l-21 -25 14 25 c9 14 18 23
21 20 4 -3 32 20 64 51 32 31 78 71 102 88 24 17 40 31 35 31 -17 0 -88 -51
-144 -104 -30 -28 -40 -34 -21 -14 33 36 34 39 32 118 l-2 80 29 0 c29 0 29 0
24 -50 -5 -59 5 -64 61 -25 35 23 55 20 44 -9 -8 -19 49 -8 68 14 16 18 15 21
-10 54 -31 41 -49 45 -65 15 -7 -11 -14 -18 -17 -15 -3 3 2 17 11 30 l16 26
-30 -6 c-23 -5 -30 -3 -30 10 0 10 -9 16 -25 16 -18 0 -25 -5 -25 -20 0 -17
-7 -20 -40 -20 -38 0 -40 2 -40 31 l0 30 63 -5 c34 -3 81 -9 104 -12z m-5198
-51 c11 -16 27 -35 34 -43 22 -23 97 -160 97 -176 0 -8 5 -14 12 -14 6 0 9 -3
5 -6 -3 -4 7 -32 22 -63 l29 -56 -37 -42 c-44 -51 -56 -53 -191 -19 -189 47
-237 65 -264 97 -35 41 -33 83 4 133 39 52 159 177 190 199 37 26 75 22 99
-10z m1031 11 c0 -8 -10 -58 -22 -110 -16 -69 -25 -94 -37 -94 -13 -1 -12 -4
4 -17 16 -13 17 -15 2 -10 -90 32 -320 52 -411 37 -33 -5 -61 -8 -63 -7 -7 8
22 203 31 209 6 4 120 8 254 8 213 0 242 -2 242 -16z m7930 -66 c-149 -176
-292 -431 -366 -652 -78 -237 -110 -461 -101 -721 11 -286 75 -541 207 -810
109 -224 219 -373 410 -559 66 -64 160 -146 210 -182 49 -36 90 -68 90 -71 0
-2 -6 -1 -12 4 -7 4 -735 8 -1618 9 -883 1 -1641 5 -1685 7 -44 3 -222 8 -395
12 -320 6 -815 21 -1015 30 -60 3 -227 7 -370 10 -143 3 -287 7 -320 10 -33 3
-287 7 -565 10 -411 4 -1300 20 -1551 28 l-55 2 115 76 c487 323 827 803 955
1349 13 58 32 152 42 210 18 105 18 105 54 123 20 9 50 17 67 17 17 0 36 7 43
15 7 8 27 15 46 15 18 0 44 5 57 11 20 9 23 16 18 42 -5 26 -12 33 -35 35 -16
2 -36 -4 -47 -14 -11 -10 -27 -14 -41 -11 -13 4 -34 -1 -52 -13 -38 -22 -86
-17 -86 10 0 15 13 21 58 30 184 36 236 51 281 84 74 54 107 67 202 77 68 8
94 7 105 -2 11 -9 14 -8 14 4 0 20 17 26 57 19 18 -2 39 1 47 7 7 6 21 9 30 5
9 -3 16 -2 16 4 0 7 11 7 35 1 19 -6 40 -7 47 -3 7 4 8 3 4 -5 -4 -6 0 -14 11
-17 10 -3 52 -19 93 -35 41 -15 82 -30 90 -31 8 -2 17 -6 20 -9 3 -3 48 -23
100 -44 52 -21 106 -45 120 -55 14 -9 39 -22 55 -27 17 -5 32 -18 33 -27 4
-18 -5 -19 -118 -5 -8 1 -26 9 -40 19 -27 17 -74 37 -300 125 -80 32 -151 62
-157 67 -10 8 -13 4 -13 -15 0 -32 -16 -38 -57 -20 -33 13 -33 13 -33 -17 0
-34 3 -34 62 -19 31 8 51 8 71 0 32 -13 35 -39 5 -50 -19 -7 -15 -9 24 -19 80
-20 79 -33 -7 -98 -41 -32 -75 -62 -75 -66 0 -4 16 -14 36 -23 33 -13 34 -16
20 -31 -17 -16 -22 -59 -8 -68 4 -2 25 0 47 6 37 9 61 3 293 -71 139 -45 261
-81 271 -81 10 0 29 -8 42 -18 13 -10 159 -62 324 -116 321 -105 777 -267 836
-297 73 -37 117 -88 94 -111 -3 -3 -22 3 -43 13 -20 11 -45 19 -56 19 -11 0
-56 11 -100 25 -230 71 -468 139 -521 150 -33 7 -78 22 -101 34 -22 12 -67 26
-100 32 -55 9 -110 22 -159 35 -11 3 -29 6 -40 8 -107 17 -110 17 -170 -6 -55
-21 -66 -22 -130 -13 -38 6 -77 14 -85 17 -8 3 -55 19 -105 35 -49 15 -92 31
-93 36 -2 4 -7 5 -12 2 -4 -3 -13 2 -20 10 -7 8 -23 15 -36 15 -13 0 -24 5
-24 10 0 6 -8 10 -19 10 -10 0 -24 7 -31 15 -7 8 -28 15 -47 15 -19 0 -43 5
-54 11 -16 8 -30 7 -59 -5 -21 -8 -40 -13 -43 -10 -3 3 -17 -6 -32 -20 -19
-18 -26 -32 -22 -46 3 -13 0 -23 -9 -27 -8 -3 -11 -10 -8 -15 4 -6 -3 -5 -15
1 -23 13 -29 26 -8 18 8 -3 20 -1 28 4 10 6 8 9 -11 9 -67 0 -47 -19 200 -191
138 -96 285 -198 328 -227 142 -96 164 -113 159 -118 -6 -6 -131 66 -135 78
-7 18 -213 138 -236 138 -3 0 -6 -4 -6 -10 0 -9 183 -133 227 -153 18 -8 20
-13 11 -39 -9 -25 -14 -28 -37 -23 -14 3 -86 14 -158 25 l-133 20 -192 138
c-297 212 -329 228 -428 219 l-57 -5 19 22 c34 36 108 161 98 164 -33 12 -210
-160 -210 -203 0 -47 50 -123 114 -174 100 -78 359 -257 417 -287 l54 -29 385
-6 c255 -5 429 -12 515 -23 418 -52 861 -96 968 -96 70 0 152 15 175 33 9 7
12 2 12 -21 0 -35 6 -37 123 -47 52 -5 77 -4 77 3 0 19 62 29 120 20 157 -26
262 -28 276 -7 10 17 83 10 103 -10 19 -19 31 -20 233 -14 206 6 412 -4 614
-28 67 -8 97 -8 112 0 17 9 23 8 30 -6 9 -15 39 -18 239 -25 125 -5 288 -7
362 -6 l134 3 19 65 c42 148 233 849 322 1180 154 575 243 876 282 957 27 58
56 96 118 158 75 76 186 167 195 159 1 -1 -25 -36 -59 -76z m-6730 -163 c130
-263 184 -501 184 -810 0 -266 -37 -453 -133 -679 -153 -362 -411 -651 -753
-845 -32 -18 -58 -30 -58 -27 0 3 21 18 48 33 117 68 272 185 337 254 l40 43
-40 -29 c-22 -15 -52 -40 -67 -53 -16 -14 -28 -23 -28 -19 0 4 42 49 93 100
52 50 106 109 122 130 27 36 45 47 45 27 0 -6 -13 -25 -30 -43 -16 -17 -41
-48 -56 -67 -14 -19 1 -6 35 30 33 36 60 68 61 72 0 3 15 24 34 46 51 62 121
186 172 308 107 255 143 409 148 634 2 80 2 120 -1 90 -6 -81 -19 -44 -14 41
3 57 6 68 12 49 12 -34 0 193 -12 249 -24 109 -76 268 -119 366 -5 11 -21 48
-36 82 -14 35 -31 60 -36 57 -4 -3 -7 0 -6 8 2 7 -2 12 -8 11 -7 -1 -10 6 -7
17 3 11 0 26 -6 33 -6 8 -8 17 -4 20 3 4 -1 7 -10 7 -11 0 -14 5 -10 16 9 25
33 -10 103 -151z m7726 127 c5 -26 59 -128 86 -158 18 -20 17 -20 -27 -42 -53
-26 -65 -27 -65 -8 0 7 -18 54 -40 104 -22 49 -40 94 -40 100 0 12 48 32 69
29 8 -1 16 -12 17 -25z m-176 -177 c6 -16 17 -25 31 -25 21 0 69 -42 69 -60 0
-4 3 -15 6 -23 4 -11 -10 -27 -42 -50 l-47 -35 -40 29 c-27 20 -52 29 -78 29
-46 0 -54 11 -37 47 10 21 110 110 126 113 1 0 7 -11 12 -25z m-8125 3 c19 -9
31 -8 49 2 35 18 53 7 58 -34 3 -31 -2 -42 -47 -90 -50 -55 -50 -55 -133 -66
-46 -6 -86 -9 -89 -7 -2 3 12 44 33 91 26 61 44 91 63 101 32 18 34 18 66 3z
m8597 -162 c32 -72 63 -140 68 -151 77 -164 109 -239 107 -248 -2 -13 17 -14
47 -2 14 6 18 4 14 -6 -5 -15 -94 -68 -115 -69 -7 0 -37 -11 -68 -25 -54 -25
-93 -26 -60 -1 15 11 5 40 -104 287 -67 150 -119 279 -117 285 2 6 16 14 30
16 28 6 37 -9 138 -237 22 -49 52 -115 66 -145 78 -171 74 -161 55 -176 -10
-7 -14 -14 -10 -14 9 0 67 28 84 42 10 8 -13 73 -86 233 -11 22 -47 108 -82
190 -34 83 -68 153 -73 157 -7 5 -7 8 2 8 6 0 12 8 12 17 0 30 29 -21 92 -161z
m-10439 27 c65 -22 75 -29 64 -40 -11 -11 -20 -11 -56 2 -24 8 -49 15 -55 14
-6 0 54 -24 133 -54 131 -49 184 -75 154 -75 -14 0 -77 -140 -99 -220 -25 -90
-25 -309 0 -400 28 -102 99 -243 150 -298 48 -51 48 -59 3 -75 -11 -4 -15 -12
-11 -18 4 -7 3 -9 -3 -6 -14 9 -74 -13 -67 -24 3 -5 -3 -6 -12 -2 -12 4 -15 3
-10 -5 5 -8 2 -10 -8 -6 -9 3 -16 1 -16 -5 0 -5 -10 -15 -21 -22 -15 -7 -19
-8 -15 0 5 7 1 9 -8 5 -9 -3 -14 -10 -11 -14 6 -9 -25 -23 -33 -15 -3 3 1 5 8
5 7 0 11 2 8 5 -8 9 -38 -6 -32 -16 3 -5 -3 -6 -12 -2 -13 5 -15 3 -9 -7 6 -9
4 -11 -4 -6 -7 5 -39 -4 -72 -19 -57 -25 -61 -26 -85 -10 -37 24 -82 90 -129
190 -89 190 -139 486 -115 678 13 105 69 306 107 385 27 54 30 57 70 60 22 2
58 -4 78 -12 47 -20 59 -20 22 0 -26 14 -29 34 -4 34 7 0 47 -12 90 -27z
m5815 13 c35 -19 96 -83 116 -122 29 -58 38 -122 25 -183 -12 -61 -60 -145
-91 -162 -16 -9 -19 -8 -12 3 5 7 9 18 9 23 0 6 13 31 28 56 73 123 25 288
-104 361 -27 15 -35 24 -27 30 18 11 25 10 56 -6z m-377 -65 c-88 -123 -82
-276 15 -390 16 -20 59 -49 99 -67 38 -18 63 -34 55 -35 -8 0 -4 -5 10 -10 19
-6 16 -7 -15 -3 -87 12 -177 81 -223 169 -19 38 -26 70 -30 133 -4 77 -3 87
28 148 27 55 48 77 78 83 2 1 -6 -12 -17 -28z m4234 -81 c-8 -21 -24 -53 -36
-69 -21 -29 -21 -30 -3 -80 17 -48 17 -53 1 -86 -9 -19 -23 -35 -31 -35 -9 0
-21 -10 -27 -22 -20 -38 -72 -78 -86 -66 -38 31 16 168 126 316 33 45 63 82
66 82 2 0 -2 -18 -10 -40z m-9231 -98 c3 -5 -10 -38 -29 -73 -45 -86 -65 -169
-65 -273 0 -138 25 -175 108 -161 l38 6 26 -58 c15 -32 30 -68 33 -80 8 -28
-9 -90 -31 -114 -16 -18 -18 -17 -45 19 -26 35 -26 38 -11 55 12 14 14 22 5
35 -6 9 -17 15 -25 13 -53 -16 -63 -13 -75 21 -6 18 -15 56 -19 83 -3 28 -13
66 -21 85 -22 54 -18 210 7 245 3 6 7 29 8 53 1 31 11 56 39 97 38 55 47 62
57 47z m504 -145 c45 -19 86 -54 106 -89 l19 -33 -44 40 c-82 75 -101 85 -161
79 -109 -10 -163 -39 -205 -112 -24 -41 -28 -57 -26 -116 2 -61 7 -76 38 -123
66 -100 181 -130 286 -75 74 38 111 93 116 169 2 37 0 51 -5 39 -6 -14 -11
-16 -16 -8 -4 7 -13 10 -19 6 -7 -3 -1 3 12 14 19 15 23 25 17 48 l-6 29 15
-25 c8 -14 15 -20 16 -15 0 6 5 -3 9 -19 10 -33 -2 -112 -24 -153 -38 -74
-137 -132 -221 -133 -98 0 -211 81 -235 169 -15 53 -12 137 6 179 27 66 96
124 169 143 36 10 116 2 153 -14z m8867 -43 c-8 -13 -15 -25 -15 -27 0 -2 25
1 55 6 30 6 58 8 61 4 3 -3 -7 -25 -24 -49 -34 -50 -77 -132 -86 -168 -4 -14
11 7 32 47 22 40 54 92 73 117 32 42 37 44 96 51 50 5 65 11 78 31 15 23 16
24 43 7 15 -9 40 -27 55 -40 25 -20 26 -23 8 -23 -11 0 -32 5 -48 11 -25 9
-26 8 -13 -5 25 -25 242 -116 275 -116 46 0 127 31 235 90 88 48 95 50 107 34
7 -10 13 -21 13 -24 0 -7 -51 -31 -197 -95 -68 -30 -99 -61 -268 -270 -115
-143 -120 -150 -52 -85 l57 54 -4 -31 c-5 -47 -73 -113 -123 -119 -21 -2 -51
-7 -66 -10 -28 -6 -27 -5 15 38 24 24 77 88 118 143 41 55 89 118 107 139 18
22 33 50 33 62 0 30 -26 49 -151 111 -112 55 -186 78 -205 62 -8 -7 -14 -6
-17 3 -10 24 -57 -39 -55 -75 1 -43 -10 -75 -40 -115 -21 -28 -23 -35 -11 -43
12 -7 11 -9 -2 -9 -9 0 -19 -10 -23 -22 -10 -38 -7 -46 14 -41 11 3 31 -2 45
-11 33 -22 21 -46 -40 -82 -75 -43 -95 -94 -56 -133 12 -12 19 -31 18 -47 -3
-40 20 -41 27 -1 5 29 10 34 30 30 13 -3 53 4 90 15 l67 20 -23 -22 c-29 -29
-61 -46 -87 -46 -11 0 -23 -5 -27 -12 -5 -8 4 -9 33 -5 22 4 139 18 261 32
253 29 302 43 395 114 84 64 92 68 79 44 -6 -11 -18 -26 -27 -33 -9 -7 -21
-23 -26 -34 -6 -12 5 -4 24 17 19 20 37 37 42 37 4 0 -7 -16 -25 -37 -28 -31
-31 -41 -27 -76 3 -23 15 -50 29 -63 26 -26 117 -49 133 -33 5 6 4 9 -5 9 -10
0 -8 6 7 18 54 41 44 133 -17 165 -19 10 -45 16 -57 14 -13 -2 -20 0 -16 6 6
11 76 2 105 -14 11 -6 24 -24 30 -40 12 -34 32 -40 23 -6 -9 30 -73 87 -99 87
-16 0 -18 2 -7 9 22 14 -16 18 -73 8 -35 -6 -55 -16 -73 -38 -27 -32 -43 -37
-43 -14 0 9 12 20 26 25 14 6 23 14 20 18 -6 10 137 82 164 82 20 0 34 13 24
23 -4 3 -28 -5 -55 -18 -71 -37 -197 -85 -219 -85 -11 0 -20 4 -20 9 0 5 -2
16 -6 24 -3 10 8 18 43 27 72 20 223 102 223 122 0 12 -7 9 -30 -12 -17 -16
-54 -36 -83 -46 -29 -9 -73 -27 -99 -40 -55 -28 -70 -30 -62 -9 3 8 -2 37 -11
64 -15 45 -15 52 -1 80 9 16 22 33 28 38 39 24 194 90 200 85 18 -18 107 -243
113 -287 4 -27 20 -75 36 -107 45 -89 34 -160 -32 -211 -66 -50 -142 -45 -209
14 -74 64 -67 63 -334 44 -133 -9 -263 -20 -291 -25 l-50 -8 40 -1 40 -2 -47
-24 c-36 -19 -53 -23 -70 -16 -60 25 -308 101 -327 101 -12 0 -21 4 -21 9 0 5
-13 14 -30 20 -16 5 -30 17 -30 25 0 9 -8 16 -17 16 -12 0 -14 3 -6 11 8 8 17
5 32 -10 12 -12 28 -21 36 -21 8 0 15 -6 16 -12 0 -7 4 -4 9 7 12 29 12 203
-1 226 -6 12 -8 27 -5 35 4 12 10 10 30 -7 14 -12 23 -26 20 -31 -3 -4 -3 -8
-1 -8 2 0 19 24 37 53 29 47 32 56 24 96 -8 39 -14 46 -44 57 -35 13 -24 19
27 14 16 -1 32 14 62 59 54 79 64 104 27 71 l-28 -25 28 43 c26 39 30 42 41
26 11 -15 10 -22 -2 -40z m-9021 5 l-19 -22 30 6 c36 6 87 -2 79 -14 -2 -4
-17 -4 -31 2 -18 7 -30 6 -37 -1 -5 -5 -23 -10 -40 -10 -16 0 -26 -3 -23 -7 4
-3 1 -13 -6 -21 -10 -13 -9 -14 3 -7 8 4 5 -3 -7 -16 -31 -35 -45 -77 -39
-124 l5 -40 -11 33 c-13 38 -28 42 -28 7 0 -58 78 -141 143 -153 55 -9 127 4
127 23 0 7 7 18 15 25 11 9 15 9 15 1 0 -7 5 -9 11 -6 6 4 8 14 5 22 -8 21 14
60 24 43 5 -8 10 -1 15 21 l8 34 13 -30 c35 -83 -108 -182 -234 -161 -52 8
-111 53 -139 105 -51 96 -11 261 63 261 13 0 26 5 30 12 5 8 2 9 -9 5 -31 -12
-18 3 16 17 43 19 43 19 21 -5z m1432 -51 c5 -7 3 -8 -6 -3 -9 5 -11 4 -6 -3
5 -9 13 -9 26 -2 17 9 19 5 26 -47 10 -81 -3 -272 -25 -378 -41 -190 -130
-387 -244 -540 -54 -73 -222 -245 -238 -245 -6 0 -22 -11 -37 -25 -15 -14 -22
-25 -16 -25 7 0 17 7 24 15 7 8 17 15 22 15 20 0 -17 -32 -105 -91 -49 -33
-92 -57 -96 -53 -3 4 0 9 8 12 10 3 10 6 1 12 -8 5 -7 9 5 13 10 5 14 3 9 -4
-4 -7 -1 -10 7 -7 8 3 13 10 12 16 -1 5 5 9 15 8 9 0 17 4 17 11 0 6 4 15 9
20 5 5 6 3 2 -4 -10 -19 2 -16 35 7 17 13 26 26 22 35 -3 8 -1 15 4 15 5 0 9
9 9 20 0 11 -6 20 -14 20 -8 0 8 17 35 39 146 116 343 367 343 438 0 10 16 58
35 106 19 48 35 91 35 97 0 6 9 20 19 31 41 45 62 237 46 427 -5 55 -4 82 3
82 6 0 14 -5 18 -12z m131 -241 c-7 -176 -20 -252 -66 -394 -62 -190 -180
-393 -295 -508 -33 -33 -61 -64 -61 -70 0 -5 -5 -10 -11 -10 -9 0 -38 -22
-138 -104 -10 -9 40 43 111 114 147 147 233 268 311 436 91 194 142 419 142
620 0 43 3 79 6 79 4 0 4 -73 1 -163z m7133 159 c0 -1 -5 -17 -11 -34 -8 -25
-7 -38 10 -73 23 -46 27 -112 11 -154 -5 -14 -25 -38 -42 -53 -80 -66 -88 -95
-39 -134 16 -13 31 -34 33 -48 3 -22 0 -25 -25 -23 -58 4 -60 13 -54 178 8
217 45 345 99 345 10 0 18 -2 18 -4z m1975 -106 c31 0 42 -34 56 -168 7 -74 7
-131 0 -187 -5 -43 -8 -82 -5 -86 2 -4 -3 -9 -11 -13 -8 -3 -15 -13 -15 -23
-1 -38 -19 15 -50 143 -26 109 -64 253 -87 328 -5 17 -1 18 42 13 26 -4 58 -7
70 -7z m-217 -52 c6 -18 27 -97 48 -175 31 -118 35 -145 24 -158 -20 -25 -39
-18 -137 46 -120 80 -121 89 -25 224 37 52 70 95 74 95 3 0 11 -15 16 -32z
m-9678 -89 c52 -34 96 -63 98 -64 2 -2 -4 -17 -13 -34 -15 -29 -14 -31 2 -31
10 0 37 5 61 10 40 10 45 8 112 -36 39 -26 70 -49 70 -52 0 -2 -13 -2 -29 1
-17 4 -36 0 -50 -10 -15 -10 -33 -13 -55 -9 -24 5 -37 2 -47 -10 -9 -11 -22
-14 -42 -10 -17 3 -41 -1 -59 -10 -16 -8 -36 -13 -43 -11 -7 3 -22 -7 -33 -23
-12 -15 -36 -35 -53 -44 -36 -18 -48 -16 -24 4 8 7 15 17 15 22 0 5 -7 2 -16
-7 -9 -9 -23 -14 -31 -11 -8 3 -20 6 -26 7 -7 0 -2 4 11 10 31 12 27 53 -6 57
-16 2 -25 -3 -31 -20 -8 -20 -10 -21 -16 -5 -4 9 -16 17 -27 17 -15 0 -18 5
-13 21 6 17 3 20 -17 18 -12 -2 -32 2 -44 8 -16 9 -27 9 -47 -2 -15 -8 -27
-11 -27 -7 0 4 -7 -2 -15 -12 -13 -17 -15 -18 -15 -3 0 9 -5 17 -11 17 -5 0
-7 -4 -4 -10 3 -5 1 -10 -6 -10 -8 0 -8 -4 -2 -12 8 -10 -3 -23 -39 -51 -50
-39 -50 -39 -27 -7 23 31 23 31 5 81 -9 28 -16 52 -14 53 38 23 91 63 113 85
l27 30 50 -40 c56 -44 75 -47 110 -20 26 21 88 137 88 165 0 27 21 19 120 -45z
m9591 -247 c59 -41 69 -61 44 -86 -12 -12 -36 -16 -96 -16 -43 0 -79 2 -79 5
0 2 8 26 18 52 11 26 22 56 25 66 9 25 28 21 88 -21z m-9146 -49 c32 -47 31
-71 -1 -136 -90 -178 -384 -471 -384 -382 0 8 -6 15 -13 15 -7 0 -19 10 -26
23 -21 32 -53 99 -49 101 2 2 28 16 58 32 81 43 202 163 277 276 82 124 96
131 138 71z m-178 -67 c-74 -109 -191 -219 -271 -257 -49 -23 -81 -30 -156
-35 -52 -3 -101 -11 -108 -16 -7 -6 -15 -8 -19 -5 -9 9 37 53 64 61 19 6 22 4
17 -11 -6 -17 -6 -17 8 1 12 15 18 16 36 7 35 -19 80 -14 96 12 27 42 29 102
7 167 -29 83 -28 88 17 88 60 1 125 13 147 28 11 8 36 14 57 14 20 0 40 5 43
11 4 6 25 9 46 8 21 -2 44 2 51 9 6 6 14 9 17 7 2 -3 -21 -43 -52 -89z m8423
78 c0 -10 -113 -164 -121 -164 -3 0 -13 27 -20 61 -13 60 -14 61 -44 54 -77
-18 -81 -17 -36 10 30 17 68 29 115 34 97 11 106 12 106 5z m-9242 -66 c-20
-7 -28 -17 -28 -33 0 -13 -4 -27 -10 -30 -5 -3 -11 -27 -11 -53 -2 -65 -13
-107 -27 -104 -7 1 -12 -2 -12 -8 0 -5 4 -10 9 -10 5 0 12 -17 16 -38 9 -54
40 -102 65 -102 12 0 19 -4 15 -9 -9 -15 37 -41 72 -41 26 0 36 6 48 30 14 27
20 30 68 31 121 1 223 7 237 13 10 4 21 -4 32 -25 13 -22 23 -29 36 -25 15 5
27 -6 55 -48 25 -38 33 -57 25 -62 -7 -4 -14 -2 -16 5 -3 8 -9 4 -16 -11 -21
-42 -205 -127 -369 -169 -60 -15 -104 -20 -164 -17 -102 4 -119 18 -157 133
-30 94 -87 337 -80 344 2 3 30 4 62 4 31 -1 50 1 41 3 -11 4 -21 30 -33 86
-18 91 -15 98 41 98 18 0 40 8 50 19 20 20 40 29 63 29 8 0 3 -4 -12 -10z
m238 -10 c5 -7 2 -9 -7 -3 -8 4 -1 -4 14 -17 22 -18 30 -35 34 -71 l6 -47 -52
0 c-34 0 -50 4 -46 10 9 15 -14 40 -31 33 -7 -3 -17 2 -20 11 -9 23 1 30 25
16 13 -6 21 -7 21 -1 0 12 -37 24 -50 16 -5 -3 -10 -18 -10 -32 0 -22 4 -25
25 -21 28 6 45 -10 25 -22 -24 -15 -80 19 -80 48 0 23 30 52 55 52 24 0 50
-25 58 -55 4 -18 5 -17 6 3 1 24 -39 71 -61 73 -7 0 -4 4 7 9 29 13 73 12 81
-2z m-791 -73 c14 -13 25 -34 24 -47 0 -13 -37 -111 -82 -218 -78 -184 -84
-195 -114 -203 -28 -9 -39 -5 -95 33 -67 46 -140 105 -200 164 -47 46 -52 99
-15 134 27 25 387 160 430 161 17 1 38 -9 52 -24z m10709 -22 c28 -5 26 -7
-95 -129 -68 -68 -127 -124 -131 -124 -19 0 -24 44 -17 144 5 73 11 112 20
118 14 8 164 3 223 -9z m106 -33 c15 -29 8 -39 -139 -185 l-131 -130 -22 23
-23 22 145 145 c80 80 148 145 152 145 4 0 12 -9 18 -20z m125 -24 c19 -14 19
-15 2 -51 -41 -86 -150 -204 -252 -275 -51 -35 -66 -37 -90 -10 -19 21 -17 23
145 185 91 91 167 165 170 165 4 0 15 -6 25 -14z m-10734 -26 c23 -31 159
-412 159 -443 -1 -26 -17 -50 -47 -65 -23 -13 -81 -4 -239 38 -133 35 -164 55
-164 105 0 26 166 355 189 375 28 25 81 19 102 -10z m4063 -1 c22 -11 44 -26
50 -32 42 -45 156 -207 156 -222 0 -23 -84 49 -230 197 -26 27 -50 45 -55 40
-5 -4 -5 -1 0 7 4 8 2 17 -6 22 -30 19 48 8 85 -12z m5873 -20 c28 -10 43 -63
43 -148 0 -58 -2 -63 -19 -58 -11 3 -93 22 -183 42 -90 21 -166 41 -170 44
-14 12 9 30 117 85 114 58 140 62 212 35z m-5519 -102 c17 -13 151 -193 159
-212 3 -10 12 -13 23 -10 24 8 34 -9 20 -35 -15 -27 -25 -25 -41 8 -8 15 -52
63 -99 107 -47 44 -87 84 -88 88 -2 4 -15 21 -28 36 -34 41 -31 52 9 39 17 -6
38 -15 45 -21z m4235 -104 c-4 -10 -2 -14 4 -10 6 4 16 -6 23 -23 7 -16 32
-64 56 -106 48 -85 50 -88 32 -78 -8 4 -10 3 -5 -2 5 -5 12 -9 17 -9 8 0 70
-80 70 -91 0 -3 -5 -2 -12 2 -7 4 -8 3 -4 -5 4 -6 11 -9 15 -7 4 3 36 -29 72
-71 35 -41 99 -105 142 -141 42 -36 77 -67 77 -70 0 -5 -5 -1 -73 56 -21 18
-42 30 -46 27 -11 -6 -144 133 -199 208 -67 90 -111 168 -104 185 3 10 1 13
-6 8 -15 -9 -54 68 -45 90 4 11 2 15 -4 11 -14 -9 -24 18 -16 40 4 11 3 14 -5
9 -8 -5 -10 -1 -5 10 4 11 2 15 -4 11 -14 -9 -23 16 -16 44 4 14 2 20 -4 16
-7 -5 -9 1 -6 14 5 17 11 8 29 -40 13 -34 20 -69 17 -78z"/>
<path d="M12965 2320 c-3 -5 0 -10 7 -10 20 0 37 -20 31 -36 -3 -8 -11 -14
-19 -14 -8 0 -14 -7 -14 -16 0 -13 3 -14 15 -4 8 7 22 10 30 6 8 -3 15 -1 15
4 0 5 7 7 15 4 21 -8 19 -24 -4 -24 -10 0 -24 -6 -30 -14 -9 -11 -6 -16 18
-24 17 -6 33 -7 36 -2 6 10 24 8 45 -5 24 -15 -44 -24 -91 -13 -42 11 -60 5
-42 -13 14 -14 213 -24 213 -10 0 5 9 7 20 4 11 -3 20 -1 20 5 0 6 -20 9 -50
8 -55 -4 -55 -4 -40 25 9 16 7 21 -12 28 -17 7 -26 5 -35 -7 -12 -14 -13 -14
-13 0 0 9 5 18 11 20 7 2 12 20 13 39 1 34 0 35 -36 33 -22 -1 -42 4 -49 12
-13 16 -45 19 -54 4z"/>
<path d="M5430 4736 c0 -28 16 -54 93 -147 154 -190 161 -196 237 -204 77 -8
122 -4 127 11 5 14 -420 374 -441 374 -12 0 -16 -10 -16 -34z"/>
<path d="M5870 3041 c0 -7 -13 -29 -28 -49 -16 -20 -36 -56 -45 -79 l-15 -43
41 -10 c23 -6 69 -18 102 -27 39 -10 69 -25 85 -43 30 -34 176 -140 191 -140
6 0 -3 14 -20 30 -16 17 -38 40 -48 53 -10 12 -30 30 -46 40 -21 14 -27 24
-25 50 3 28 0 32 -21 29 -17 -1 -22 2 -17 13 6 16 -39 45 -69 45 -8 0 -15 7
-15 15 0 8 -5 24 -12 34 -18 29 -3 51 34 51 29 0 31 2 17 15 -19 19 -109 32
-109 16z"/>
<path d="M5527 6124 c-15 -8 -27 -11 -27 -7 0 4 -21 -35 -47 -87 -34 -65 -57
-98 -77 -109 -15 -9 -38 -24 -50 -33 -20 -17 -20 -17 -1 -18 11 0 65 13 120
28 55 16 143 39 195 51 130 30 210 54 210 64 0 4 -22 5 -49 1 -44 -6 -50 -4
-56 15 -7 23 -21 28 -28 9 -3 -8 -9 -1 -16 15 -9 24 -53 53 -73 49 -5 -1 -8 3
-8 10 0 6 -3 9 -6 5 -4 -3 -18 0 -33 7 -22 12 -30 12 -54 0z"/>
<path d="M5139 5791 c-24 -16 -69 -54 -99 -85 -54 -56 -54 -56 -35 -75 20 -19
21 -18 128 82 101 97 106 102 78 104 -17 1 -46 -9 -72 -26z"/>
</g>
</svg>
